<?xml version="1.0" encoding="UTF-8"?><svg id="Layer_2" xmlns="http://www.w3.org/2000/svg" viewBox="0 0 346.467862 348.938415"><defs><style>.cls-1{fill:#ed225d;}.cls-2{fill:#fff;}</style></defs><g id="Layer_1-2"><rect class="cls-1" width="346.467862" height="348.938415" rx="59.179337" ry="59.179337"/><path class="cls-2" d="M204.526925,195.159948l22.259636,73.735045c4.37301,14.485595-3.637133,29.809393-18.02725,34.487021l-8.339436,2.710803c-14.458279,4.699783-30.011138-3.081092-34.9197-17.46983l-13.063484-38.293713c-5.992562-17.566328-27.182483-24.445517-42.35047-13.748843l-34.70115,24.47173c-12.43527,8.769524-29.609447,5.917417-38.542692-6.400766l-5.598363-7.719665c-8.892087-12.26143-6.337523-29.383897,5.746322-38.51585l34.830361-26.321854c14.724082-11.127221,14.724924-33.246912.00169-44.375255l-32.060323-24.232329c-12.285769-9.28602-14.686404-26.787941-5.35476-39.039093l5.038392-6.614709c9.174715-12.045127,26.299313-14.537655,38.527002-5.6077l32.505252,23.738779c14.978865,10.939154,36.265414,4.42854,42.562366-13.017947l14.411275-39.928223c5.097095-14.122132,20.482808-21.649493,34.760656-17.006425l8.357915,2.717942c14.57979,4.741258,22.572868,20.387193,17.870024,34.979418l-12.188876,37.820268c-5.787231,17.956917,7.604393,36.342747,26.470842,36.342747h38.031178c15.359929,0,27.811612,12.451683,27.811612,27.811612v11.676914c0,15.359929-12.451683,27.811612-27.811612,27.811612h-76.226405v-.01169Z"/><path d="M199.418879,324.948715c-10.669439-6.17644-20.402784-14.972414-29.198759-26.390475-2.430786-2.991932-3.369431-6.550113-2.807009-10.669439.376223-3.741828,1.780365-6.737587,4.211151-8.983449l27.232195-28.355764.562422-.561147-8.423577-7.019435c-4.119327-3.180682-5.895866-7.76423-5.333444-13.757022l14.037595-83.944997c.561147-3.741828,2.1974-6.737587,4.912584-8.983449,2.711359-2.245862,5.75558-3.180682,9.125011-2.807009l100.228454,11.229311c3.553079.377499,6.40855,2.105575,8.562589,5.194433,2.148937,3.087582,3.040395,6.5973,2.666722,10.527877l-4.491724,37.901634c-.377499,3.930578-1.965289,7.158447-4.772298,9.686157-2.808284,2.526436-5.992792,3.605368-9.545871,3.227869l-10.107017-1.122293c8.60595,6.553939,14.971139,15.159889,19.090466,25.829328,4.115501,10.668164,5.426544,22.555547,3.930578,35.654497-1.684715,14.415094-6.27209,26.861073-13.757022,37.340488-7.487483,10.484516-17.222103,18.108459-29.197484,22.880757-11.980482,4.773573-25.363831,6.318002-40.147496,4.633286-13.853947-1.495966-26.109901-5.33472-36.778066-11.51116ZM256.410979,265.428903c2.991932-3.179406,4.676648-6.360088,5.052871-9.544595.373673-4.30425-.938645-8.186365-3.930578-11.651446-2.995758-3.461255-7.579307-5.56683-13.755746-6.316726-7.300009-.934819-14.88059.658072-22.741746,4.772298-1.499792.749896-2.763648,1.825002-3.790291,3.229144-1.030469,1.402867-1.640079,2.947296-1.823727,4.632011-.377499,3.745654.84172,6.834512,3.648729,9.264022,7.111259,5.431645,14.130694,8.519227,21.05703,9.265297,7.861155.749896,13.287699-.465497,16.283457-3.650004ZM269.606855,211.524385c3.179406.562422,6.036153.702709,8.562589.422135s3.882115-1.355679,4.070864-3.229144c.561147-3.369431-2.483074-6.17644-9.125011-8.422302-6.645763-2.245862-12.962489-3.741828-18.950179-4.491724-3.184508-.184923-5.475006.188749-6.879149,1.122293-1.402867.938645-2.294325,2.342788-2.666722,4.211151-.561147,3.74693,2.807009,6.365189,10.107017,7.861155,4.676648.749896,9.357121,1.592891,14.037595,2.526436h.842995Z"/></g></svg>