<?xml version="1.0" encoding="UTF-8"?><svg id="Layer_2" xmlns="http://www.w3.org/2000/svg" viewBox="0 0 346.467862 351.119079"><defs><style>.cls-1{fill:#f1678e;}.cls-2{fill:#ed225d;}.cls-3{fill:#fff;}</style></defs><g id="Layer_1-2"><rect class="cls-2" width="346.467862" height="348.938415" rx="59.179337" ry="59.179337"/><path class="cls-3" d="M204.526925,195.159948l22.259636,73.735045c4.37301,14.485595-3.637133,29.809393-18.02725,34.487021l-8.339436,2.710803c-14.458279,4.699783-30.011138-3.081092-34.9197-17.46983l-13.063484-38.293713c-5.992562-17.566328-27.182483-24.445517-42.35047-13.748843l-34.70115,24.47173c-12.43527,8.769524-29.609447,5.917417-38.542692-6.400766l-5.598363-7.719665c-8.892087-12.26143-6.337523-29.383897,5.746322-38.51585l34.830361-26.321854c14.724082-11.127221,14.724924-33.246912.00169-44.375255l-32.060323-24.232329c-12.285769-9.28602-14.686404-26.787941-5.35476-39.039093l5.038392-6.614709c9.174715-12.045127,26.299313-14.537655,38.527002-5.6077l32.505252,23.738779c14.978865,10.939154,36.265414,4.42854,42.562366-13.017947l14.411275-39.928223c5.097095-14.122132,20.482808-21.649493,34.760656-17.006425l8.357915,2.717942c14.57979,4.741258,22.572868,20.387193,17.870024,34.979418l-12.188876,37.820268c-5.787231,17.956917,7.604393,36.342747,26.470842,36.342747h38.031178c15.359929,0,27.811612,12.451683,27.811612,27.811612v11.676914c0,15.359929-12.451683,27.811612-27.811612,27.811612h-76.226405v-.01169Z"/><path d="M247.482002,344.118621c-3.913086,0-7.976562-.236328-12.078125-.704102-14.71582-1.587891-28.017578-5.764648-39.492188-12.408203-11.394531-6.59668-21.887207-16.053711-31.187012-28.111328-3.569336-4.435547-5.041992-9.90332-4.263672-15.828125.561035-5.339844,2.661621-9.760742,6.244629-13.145508l22.448242-23.375-2.548828-2.124023c-4.182617-3.271484-8.899414-9.357422-7.913086-19.864258l.024414-.250977,14.070312-84.140625c.831055-5.456055,3.308594-9.922363,7.363281-13.276855,3.598633-2.980469,7.692383-4.493164,12.164062-4.493164.72168,0,1.459961.041504,2.194336.122559l100.236328,11.230469c5.52832.587402,10.21875,3.405762,13.524414,8.146484,3.119141,4.479004,4.427734,9.589844,3.894531,15.195312l-4.500977,37.989258c-.5625,5.675781-2.932617,10.430664-7.045898,14.136719-2.228516,2.003906-4.72168,3.439453-7.37793,4.267578,3.508789,4.776367,6.40332,10.101562,8.660156,15.944336,4.507812,11.686523,5.972656,24.796875,4.355469,38.969727-1.818359,15.551758-6.870117,29.209961-15.016602,40.615234-8.241211,11.540039-19.109375,20.057617-32.301758,25.31543-9.642578,3.841797-20.225586,5.789062-31.454102,5.789062ZM223.515205,254.399871c5.976562,4.524414,11.817383,7.12207,17.362305,7.71875,1.1875.113281,2.388672.174805,3.484375.174805,4.863281,0,6.480469-1.161133,6.950195-1.660156,1.891602-2.009766,2.962891-3.850586,3.1875-5.472656.177734-2.37207-.523438-4.335938-2.264648-6.353516-1.802734-2.083008-4.93457-3.411133-9.300781-3.941406-1.09668-.140625-2.169922-.208984-3.237305-.208984-4.860352,0-10.046875,1.424805-15.416016,4.233398l-.114258.058594c-.500977.250977-.904297.599609-1.269531,1.099609-.310547.422852-.467773.807617-.516602,1.259766-.136719,1.358398.160156,2.200195,1.134766,3.091797Z"/><path class="cls-1" d="M212.313743,133.396499c.467941-.000015.942093.026672,1.423325.080048l100.228424,11.229294c3.553101.377518,6.408569,2.105576,8.562592,5.194412,2.148926,3.087585,3.040405,6.597351,2.666687,10.527878l-4.491699,37.901642c-.377472,3.930588-1.965302,7.158478-4.772278,9.686188-2.444061,2.19873-5.173523,3.301224-8.182465,3.301224-.448395,0-.902588-.024445-1.363434-.07341l-10.106995-1.122238c8.605927,6.55394,14.9711,15.159882,19.090454,25.8293,4.115479,10.668182,5.426544,22.555603,3.930603,35.654541-1.684723,14.415039-6.272125,26.861053-13.756989,37.340454-7.487549,10.484528-17.222137,18.10849-29.19754,22.880768-8.855194,3.52829-18.477081,5.292511-28.864075,5.292511-3.665894,0-7.42688-.219727-11.283386-.65921-13.853958-1.496002-26.109894-5.334778-36.778076-11.511169-10.669464-6.176422-20.402817-14.972412-29.198761-26.390472-2.430817-2.991943-3.369476-6.55014-2.806992-10.669495.376175-3.741821,1.78035-6.737579,4.211105-8.983398l27.232178-28.355774.562469-.561157-8.423584-7.019409c-4.119354-3.180725-5.895889-7.764252-5.333466-13.757019l14.037582-83.944992c.561172-3.741821,2.197418-6.737595,4.912582-8.983475,2.324173-1.92511,4.89328-2.886932,7.701736-2.887039M268.763832,211.524368h.843018c2.120056.375061,4.096893.562393,5.927734.562393.914856,0,1.79306-.046753,2.634827-.140213,2.526489-.280594,3.882141-1.355713,4.070892-3.229187.561188-3.369415-2.483063-6.176407-9.125-8.422287-6.645752-2.24588-12.962463-3.741821-18.950165-4.491714-.526947-.030594-1.029785-.045898-1.507782-.045914-2.410889-.000046-4.199615.389099-5.371399,1.168213-1.402893.938644-2.294281,2.342758-2.666718,4.211121-.561096,3.746933,2.807007,6.365234,10.106995,7.861176,4.676666.749878,9.357147,1.59288,14.037598,2.526413M244.360328,269.293457c5.610291,0,9.626312-1.287445,12.05069-3.864563,2.991882-3.179413,4.676575-6.360046,5.052826-9.544586.373688-4.30423-.93866-8.18634-3.930603-11.651459-2.995758-3.461243-7.579285-5.566772-13.755707-6.316711-1.350037-.172882-2.710083-.259338-4.079315-.259338-6.034546,0-12.255081,1.678314-18.662445,5.031616-1.499756.749878-2.763641,1.825012-3.790283,3.229187-1.030472,1.402832-1.64006,2.947296-1.823715,4.631989-.377533,3.745667.841705,6.834473,3.648712,9.264008,7.111298,5.431641,14.130692,8.519226,21.056992,9.265289,1.49942.143036,2.910553.214569,4.232849.214569M212.313712,119.396484h-.00058c-6.058701.000229-11.809891,2.111404-16.631653,6.105347-5.321976,4.4021-8.713562,10.471848-9.806747,17.554184l-14.021194,83.846939-.083282.498123-.04718.502823c-.851501,9.073029,1.728821,17.104889,7.318954,23.066071l-17.278107,17.990997c-4.665314,4.471741-7.51329,10.430664-8.254654,17.279327-1.005661,7.810028.967758,15.056274,5.715622,20.985504,9.848602,12.755859,21.011551,22.795013,33.180069,29.839203,12.311203,7.127655,26.522263,11.605316,42.239456,13.308594,4.35144.494659,8.669983.745483,12.835938.745483,12.121552,0,23.576294-2.115173,34.046082-6.286835,14.460999-5.762817,26.373871-15.099182,35.408508-27.750122,8.841431-12.378632,14.31543-27.13269,16.269379-43.851654,1.752228-15.342529.144501-29.568176-4.7742-42.318451-1.471069-3.810211-3.190613-7.42337-5.152344-10.830612.68927-.515915,1.361664-1.068436,2.016418-1.657455,5.360718-4.827316,8.581848-11.247269,9.327271-18.578918l4.476013-37.769318.019135-.161057.01535-.161407c.684235-7.197113-1.083832-14.061356-5.113068-19.850525-4.500427-6.453629-10.905823-10.292557-18.533386-11.114166l-100.189667-11.22496c-1.005539-.111465-2.003418-.167114-2.982132-.167114h0ZM254.78556,194.501754l-.000061-.000031.000061.000031h0ZM233.627845,252.583831c2.113678-.616577,4.142303-.927063,6.070404-.927063.770538,0,1.544708.049133,2.301056.145935l.045349.005829.04541.005524c2.877899.349426,4.415375,1.070007,4.857544,1.580841.330963.383362.479279.622131.540955.815247-.110992.192932-.305542.492218-.631226.893738-.456482.087311-1.256042.189606-2.49704.189606-.848633,0-1.794739-.048065-2.813263-.142853-2.508453-.282135-5.156982-1.141785-7.919189-2.566803h0Z"/></g></svg>